<?xml version="1.0" encoding="UTF-8"?>
<svg id="Layer_1" xmlns="http://www.w3.org/2000/svg" version="1.1" xmlns:serif="http://www.serif.com/" viewBox="0 0 1080 1080">
  <!-- Generator: Adobe Illustrator 29.1.0, SVG Export Plug-In . SVG Version: 2.1.0 Build 142)  -->
  <defs>
    <style>
      .st0, .st1 {
        fill: #fff;
      }

      .st1 {
        stroke: #fff;
        stroke-linejoin: round;
        stroke-width: 1.8px;
      }
    </style>
  </defs>
  <path class="st1" d="M540,79.2c-125.1,0-140.8.5-190,2.8-49,2.2-82.5,10-111.9,21.4-30.3,11.8-56,27.5-81.6,53.1s-41.4,51.3-53.1,81.6c-11.4,29.3-19.2,62.8-21.4,111.9-2.2,49.1-2.8,64.8-2.8,190s.5,140.8,2.8,190c2.2,49,10,82.5,21.4,111.9,11.8,30.3,27.5,56,53.1,81.6s51.3,41.4,81.6,53.1c29.3,11.4,62.8,19.2,111.9,21.4,49.1,2.2,64.8,2.8,190,2.8s140.8-.5,190-2.8c49-2.2,82.5-10,111.9-21.4,30.3-11.8,56-27.5,81.6-53.1s41.4-51.3,53.1-81.6c11.4-29.3,19.2-62.8,21.4-111.9,2.2-49.1,2.8-64.8,2.8-190s-.5-140.8-2.8-190c-2.2-49-10-82.5-21.4-111.9-11.8-30.3-27.5-56-53.1-81.6s-51.3-41.4-81.6-53.1c-29.3-11.4-62.8-19.2-111.9-21.4s-64.8-2.8-190-2.8ZM540,162.2c123,0,137.6.5,186.2,2.7,44.9,2.1,69.3,9.6,85.6,15.9,21.5,8.4,36.9,18.3,53,34.5,16.1,16.1,26.1,31.5,34.5,53,6.3,16.2,13.8,40.6,15.9,85.6,2.2,48.6,2.7,63.2,2.7,186.2s-.5,137.6-2.7,186.2c-2,44.9-9.6,69.3-15.9,85.6-8.4,21.5-18.3,36.9-34.5,53-16.1,16.1-31.5,26.1-53,34.5-16.2,6.3-40.6,13.8-85.6,15.9-48.6,2.2-63.2,2.7-186.2,2.7s-137.6-.5-186.2-2.7c-44.9-2-69.3-9.6-85.6-15.9-21.5-8.4-36.9-18.3-53-34.5-16.1-16.1-26.1-31.5-34.5-53-6.3-16.2-13.8-40.6-15.9-85.6-2.2-48.6-2.7-63.2-2.7-186.2s.5-137.6,2.7-186.2c2.1-44.9,9.6-69.3,15.9-85.6,8.4-21.5,18.3-36.9,34.5-53,16.1-16.1,31.5-26.1,53-34.5,16.2-6.3,40.6-13.8,85.6-15.9,48.6-2.2,63.2-2.7,186.2-2.7h0Z"/>
  <path class="st0" d="M540,693.6c-84.8,0-153.6-68.8-153.6-153.6s68.8-153.6,153.6-153.6,153.6,68.8,153.6,153.6-68.8,153.6-153.6,153.6ZM540,303.4c-130.7,0-236.6,105.9-236.6,236.6s105.9,236.6,236.6,236.6,236.6-105.9,236.6-236.6-105.9-236.6-236.6-236.6Z"/>
  <path class="st0" d="M841.3,294c0,30.5-24.8,55.3-55.3,55.3s-55.3-24.8-55.3-55.3,24.8-55.3,55.3-55.3,55.3,24.8,55.3,55.3Z"/>
</svg>